<svg width="30" height="30" viewBox="0 0 30 30" fill="none" xmlns="http://www.w3.org/2000/svg">
<path d="M26.2252 3.20017C25.4243 2.40852 24.3713 1.9225 23.2493 1.82659C22.1273 1.73068 21.0071 2.03093 20.0835 2.67517C23.0525 3.91131 25.4779 6.17401 26.9168 9.05017C27.4723 8.13815 27.706 7.06626 27.5806 6.0058C27.4552 4.94534 26.978 3.95751 26.2252 3.20017V3.20017Z" fill="#C4C4C4"/>
<path d="M9.51683 2.85849C8.59703 2.12797 7.44164 1.7594 6.26873 1.82234C5.09581 1.88529 3.9865 2.37539 3.15016 3.20015C2.32073 4.03508 1.82949 5.14733 1.77103 6.32276C1.71256 7.4982 2.09101 8.65371 2.8335 9.56682C4.17061 6.59185 6.54687 4.20669 9.51683 2.85849V2.85849Z" fill="#C4C4C4"/>
<path d="M13.6665 3.40824C11.4908 3.66241 9.43055 4.52398 7.72161 5.89436C6.01267 7.26473 4.72406 9.08855 4.00324 11.1571C3.28243 13.2256 3.15854 15.4553 3.64574 17.591C4.13295 19.7266 5.21158 21.682 6.75818 23.2332L4.63318 25.3582C4.55602 25.437 4.49515 25.5303 4.45402 25.6326C4.4129 25.7349 4.39233 25.8443 4.39349 25.9546C4.39465 26.0649 4.41752 26.1738 4.46079 26.2752C4.50406 26.3767 4.56688 26.4686 4.64568 26.5457C4.72447 26.6229 4.81769 26.6838 4.92001 26.7249C5.02233 26.766 5.13175 26.7866 5.24202 26.7854C5.35228 26.7843 5.46125 26.7614 5.56268 26.7181C5.66411 26.6749 5.75602 26.612 5.83318 26.5332L8.04984 24.3166C10.077 25.8506 12.5524 26.6751 15.0945 26.663C17.6365 26.651 20.104 25.803 22.1165 24.2499L24.3998 26.5332C24.5593 26.6698 24.7643 26.7411 24.9741 26.733C25.1838 26.7249 25.3827 26.638 25.5311 26.4895C25.6796 26.3411 25.7665 26.1422 25.7746 25.9325C25.7827 25.7227 25.7114 25.5177 25.5748 25.3582L23.3332 23.1499C25.0154 21.4268 26.1231 19.2253 26.5044 16.8475C26.8857 14.4698 26.5219 12.0323 25.4629 9.86955C24.4039 7.70679 22.7016 5.92473 20.5895 4.76788C18.4775 3.61104 16.0592 3.13611 13.6665 3.40824V3.40824ZM16.3165 24.9166C14.2453 25.1878 12.1412 24.8037 10.2995 23.8181C8.45776 22.8325 6.97091 21.2949 6.04766 19.4212C5.1244 17.5474 4.81109 15.4316 5.1517 13.3707C5.49231 11.3098 6.46974 9.40724 7.94679 7.93019C9.42384 6.45314 11.3264 5.47571 13.3873 5.1351C15.4482 4.79449 17.564 5.1078 19.4378 6.03106C21.3115 6.95432 22.8491 8.44116 23.8347 10.2829C24.8203 12.1246 25.2044 14.2287 24.9332 16.2999C24.647 18.4849 23.6471 20.5141 22.0889 22.0723C20.5307 23.6305 18.5015 24.6304 16.3165 24.9166Z" fill="#C4C4C4"/>
<path d="M20.7668 16.9498L15.7168 14.4498V7.9165C15.7168 7.71759 15.6378 7.52683 15.4971 7.38617C15.3565 7.24552 15.1657 7.1665 14.9668 7.1665C14.7679 7.1665 14.5771 7.24552 14.4365 7.38617C14.2958 7.52683 14.2168 7.71759 14.2168 7.9165V15.4165L20.1001 18.3332C20.2792 18.4205 20.4855 18.4331 20.6738 18.3682C20.8622 18.3034 21.017 18.1664 21.1043 17.9873C21.1916 17.8083 21.2042 17.6019 21.1394 17.4136C21.0745 17.2253 20.9375 17.0705 20.7585 16.9832L20.7668 16.9498Z" fill="#C4C4C4"/>
</svg>
